HIERARCHY
ROOT Hips
{
	OFFSET -0.179506 -22.333345 2.821913
	CHANNELS 6 Xposition Yposition Zposition Zrotation Yrotation Xrotation 
	JOINT LeftUpLeg
	{
		OFFSET 6.951974 -9.140623 -0.681533
		CHANNELS 3 Zrotation Yrotation Xrotation
		JOINT LeftLeg
		{
			OFFSET 3.427654 -37.519855 -0.449580
			CHANNELS 3 Zrotation Yrotation Xrotation
			JOINT LeftFoot
			{
				OFFSET -1.359570 -39.796059 -4.369333
				CHANNELS 3 Zrotation Yrotation Xrotation
				JOINT LeftToe
				{
					OFFSET 2.635814 -5.579078 11.928840
					CHANNELS 3 Zrotation Yrotation Xrotation
					End Site
					{
						OFFSET 0.000000 0.000000 0.000000
					}
				}
			}
		}
	}
	JOINT RightUpLeg
	{
		OFFSET -6.767048 -9.052170 -0.431982
		CHANNELS 3 Zrotation Yrotation Xrotation
		JOINT RightLeg
		{
			OFFSET -3.829005 -38.256897 -0.885003
			CHANNELS 3 Zrotation Yrotation Xrotation
			JOINT RightFoot
			{
				OFFSET 1.577377 -39.841461 -4.231180
				CHANNELS 3 Zrotation Yrotation Xrotation
				JOINT RightToe
				{
					OFFSET -2.537174 -4.814398 12.334795
					CHANNELS 3 Zrotation Yrotation Xrotation
					End Site
					{
						OFFSET 0.000000 0.000000 0.000000
					}
				}
			}
		}
	}
	JOINT Spine
	{
		OFFSET -0.253288 10.896323 -2.669631
		CHANNELS 3 Zrotation Yrotation Xrotation
		JOINT Spine1
		{
			OFFSET 0.548704 13.518043 0.109247
			CHANNELS 3 Zrotation Yrotation Xrotation
			JOINT Spine2
			{
				OFFSET 0.145701 5.292222 2.542457
				CHANNELS 3 Zrotation Yrotation Xrotation
				JOINT Neck
				{
					OFFSET -0.277840 21.387037 -4.285703
					CHANNELS 3 Zrotation Yrotation Xrotation
					JOINT Head
					{
						OFFSET 0.515184 6.496960 5.134897
						CHANNELS 3 Zrotation Yrotation Xrotation
						End Site
						{
							OFFSET 0.000000 0.000000 0.000000
						}
					}
				}
				JOINT LeftShoulder
				{
					OFFSET 7.884473 12.174932 -3.408961
					CHANNELS 3 Zrotation Yrotation Xrotation
					JOINT LeftArm
					{
						OFFSET 9.097692 3.046888 -0.886815
						CHANNELS 3 Zrotation Yrotation Xrotation
						JOINT LeftForeArm
						{
							OFFSET 25.961220 -1.277207 -2.745643
							CHANNELS 3 Zrotation Yrotation Xrotation
							JOINT LeftHand
							{
								OFFSET 24.923361 0.898606 -0.117091
								CHANNELS 3 Zrotation Yrotation Xrotation
								End Site
								{
									OFFSET 0.000000 0.000000 0.000000
								}
							}
						}
					}
				}
				JOINT RightShoulder
				{
					OFFSET -8.175920 11.883285 -3.861528
					CHANNELS 3 Zrotation Yrotation Xrotation
					JOINT RightArm
					{
						OFFSET -9.601238 3.255117 -0.914307
						CHANNELS 3 Zrotation Yrotation Xrotation
						JOINT RightForeArm
						{
							OFFSET -25.374195 -1.332924 -2.140099
							CHANNELS 3 Zrotation Yrotation Xrotation
							JOINT RightHand
							{
								OFFSET -25.529810 0.777228 -0.555919
								CHANNELS 3 Zrotation Yrotation Xrotation
								End Site
								{
									OFFSET 0.000000 0.000000 0.000000
								}
							}
						}
					}
				}
			}
		}
	}
}
MOTION
Frames: 15
Frame Time: 0.033333
-126.051697 38.513054 94.185684 -97.131136 -4.075741 87.731594 21.136035 10.723287 3.236426 -2.102066 3.363658 5.348909 -12.152205 -2.223413 2.510105 nan nan nan -15.268105 -8.903228 -28.573743 2.701220 -6.553475 42.795236 8.320176 3.933177 -11.099367 nan nan nan -3.725949 -1.715706 8.755561 7.232068 -5.527631 6.658847 3.389817 -3.277548 -4.178250 -2.093340 -14.633878 13.417768 10.388219 -23.096043 2.199286 -3.694891 -28.125147 -1.727761 -66.481039 -52.464372 34.005902 38.530254 -83.764907 -16.653140 13.154817 -31.978026 -31.542607 7.615599 12.494620 1.913961 22.449236 4.214390 -13.139628 -39.275432 36.754002 -39.953304 1.226301 20.631336 -25.693628 
-126.205917 38.825779 93.876396 -96.240820 -3.797775 87.446655 21.984695 10.738213 3.248807 -2.339829 3.251907 5.506757 -12.789281 -2.735905 2.240987 nan nan nan -14.815588 -8.743661 -27.515487 3.620068 -5.756941 41.464122 7.092846 2.273547 -12.734837 nan nan nan -4.027967 -1.262322 8.312504 7.186382 -5.374351 7.444575 3.384251 -3.186629 -4.467435 -1.974994 -15.645534 13.814782 10.876614 -23.306576 2.568828 -3.789721 -27.854562 -1.815363 -66.928768 -52.362845 34.513406 38.146051 -83.535020 -16.373331 15.906916 -31.179165 -31.547530 7.692760 12.827681 2.022440 22.154167 3.618693 -13.505331 -39.430289 35.763048 -40.237238 2.281340 21.083897 -24.691458 
-126.398163 39.169907 93.560951 -95.309333 -3.525343 87.141445 22.797704 11.053239 3.053970 -2.331751 3.076451 6.108708 -13.610687 -3.649610 1.629116 nan nan nan -14.234098 -9.019846 -26.577769 3.344916 -5.882770 41.473651 6.378279 2.450764 -14.513657 nan nan nan -4.299368 -0.784290 8.257645 7.073829 -5.205990 7.575873 3.430109 -2.946111 -4.724523 -1.757225 -16.348640 14.589595 11.623115 -24.009169 2.389922 -4.088290 -27.738934 -1.814277 -67.479168 -52.197822 34.756708 34.960882 -83.585930 -13.060678 17.092080 -30.496217 -31.213943 7.903537 12.779000 2.367492 21.835663 2.439203 -14.115021 -39.316639 36.092827 -39.548684 2.017756 21.301840 -25.049567 
-126.573074 39.521538 93.235085 -94.401644 -3.359083 86.597303 23.449764 11.377516 2.992086 -2.076272 2.531802 6.877926 -14.454358 -4.644075 0.779167 nan nan nan -13.659319 -9.486575 -25.753551 1.851461 -6.274321 42.723066 5.785770 3.925118 -16.313767 nan nan nan -4.560576 -0.313123 8.699291 6.820231 -5.055926 7.341826 3.425612 -2.575382 -4.737255 -1.287267 -16.594432 15.287121 12.586555 -25.200470 1.778486 -4.235239 -27.641473 -2.035754 -67.771643 -52.012236 34.563344 30.303259 -84.076431 -8.214017 15.723055 -30.749763 -30.816717 7.927792 12.533900 2.405087 22.070728 1.528155 -15.042736 -39.418591 36.384291 -38.503587 2.105859 21.346315 -24.657980 
-126.720757 39.867722 92.856949 -93.446657 -3.269432 85.947329 23.969267 11.227874 2.988898 -1.799874 1.998297 7.602217 -15.143663 -5.431102 0.004517 nan nan nan -13.292495 -9.723078 -24.939426 0.113726 -6.852168 43.911216 5.464906 5.356538 -17.814979 nan nan nan -4.937223 0.172538 9.193961 6.624105 -4.982496 7.260022 3.396400 -2.247708 -4.643350 -0.504095 -16.523431 15.369741 13.306496 -26.819502 1.379005 -4.332039 -27.465569 -2.340817 -67.847235 -52.044016 34.435727 26.515626 -84.636013 -4.440355 12.280061 -32.018434 -30.550533 8.304434 12.296482 2.495168 21.956738 0.950527 -15.829540 -39.835521 36.222560 -37.839668 2.176677 21.218815 -23.486619 
-126.823242 40.208641 92.408966 -92.477111 -3.252177 85.474498 24.340776 10.971433 2.694656 -1.650318 1.452701 8.428783 -15.382349 -5.993196 -0.887882 nan nan nan -13.066102 -9.920128 -24.689546 -0.997101 -7.119161 45.321864 5.123779 5.783058 -19.053119 nan nan nan -5.417072 0.544559 9.504679 6.455061 -4.907673 7.130668 3.296454 -2.063566 -4.239691 0.242097 -16.431361 14.794106 13.746006 -28.195156 1.555893 -4.144220 -27.046773 -2.953736 -68.292023 -52.108971 34.756271 25.396054 -85.068927 -3.378024 11.781772 -31.874761 -30.689279 8.574656 12.056476 2.391581 22.070144 0.738393 -16.038900 -40.316977 35.945675 -37.528188 1.552379 20.564465 -21.831618 
-126.870155 40.554905 91.917892 -91.488097 -3.175679 85.068939 24.726212 10.679547 2.210565 -1.640531 0.820642 9.346085 -15.117118 -6.302367 -1.970938 nan nan nan -12.747288 -9.959400 -24.924006 -0.869884 -6.683821 46.975849 4.438286 4.020776 -20.245909 nan nan nan -5.941916 0.812262 9.850831 6.332695 -4.645609 7.052974 3.270136 -1.965660 -4.022891 0.766059 -17.348005 13.906062 13.978402 -29.197075 2.392118 -4.163885 -26.612911 -3.161776 -68.632194 -52.768818 34.927085 22.936566 -85.304900 -1.107103 9.940007 -31.907164 -30.884079 8.800187 11.871560 2.520698 22.168238 0.234181 -16.283826 -40.909161 35.312635 -38.147521 3.268870 20.859151 -20.828768 
-126.840889 40.886555 91.437897 -90.473781 -3.099845 84.814291 24.976472 10.180751 1.468694 -1.679245 0.307131 10.293665 -14.697339 -6.317280 -3.056057 nan nan nan -12.559121 -9.932070 -25.269886 -0.602831 -6.431112 48.401796 4.165499 2.399436 -21.072895 nan nan nan -6.457973 0.986327 9.763454 6.310310 -4.569227 7.051783 3.033731 -1.997942 -3.351999 1.496371 -17.619625 12.991422 14.019964 -30.072877 3.155060 -4.420569 -26.116740 -3.228817 -68.230071 -53.714990 34.927117 21.279004 -85.411521 -0.042823 9.150548 -32.147882 -31.203045 9.453451 11.498402 2.461821 22.064531 0.728370 -15.937644 -41.805663 34.141894 -39.120526 3.698846 20.622168 -20.136663 
-126.771507 41.183613 90.965202 -89.500641 -2.855037 84.847809 25.321696 9.809497 0.384519 -1.785920 -0.090727 11.242373 -14.234270 -6.202822 -4.091590 nan nan nan -12.408430 -9.798978 -25.803670 -0.417566 -6.531183 49.624614 4.310698 1.587070 -21.628385 nan nan nan -6.789660 1.107154 10.000393 6.324316 -4.417507 6.557751 2.949016 -2.096803 -3.003594 2.067114 -18.030967 12.143649 13.919645 -30.827719 4.065480 -4.823456 -25.616899 -3.178764 -68.188963 -54.212960 35.280655 21.513030 -85.685247 -0.531154 11.145686 -32.557484 -32.416818 9.991218 11.141625 2.712974 21.814871 0.505716 -15.164887 -42.021595 33.910145 -39.426911 1.337113 20.379452 -21.138812 
-126.721199 41.433613 90.516708 -88.664533 -2.445018 84.860001 25.885448 9.639498 -0.614362 -1.932087 -0.217378 12.216748 -14.049234 -6.196983 -5.027450 nan nan nan -12.292992 -9.661404 -26.188751 -0.354904 -7.075452 50.768644 4.418786 1.416682 -22.220466 nan nan nan -6.863820 1.227795 10.339750 6.332070 -4.307565 6.353709 2.899121 -2.170218 -3.006723 2.626209 -18.315058 11.330381 13.876420 -31.588909 4.662262 -5.259901 -25.199354 -3.354571 -68.618642 -54.503387 35.737948 21.443389 -85.868244 -0.592367 11.300804 -32.585299 -33.407329 10.618539 10.828386 2.669092 21.473252 0.618225 -15.246445 -42.054495 33.672254 -39.197192 0.379445 20.274930 -20.619548 
-126.683548 41.654114 90.111809 -87.987888 -1.958106 84.777208 26.523090 9.659706 -1.416899 -1.959697 -0.123340 13.171769 -14.047633 -6.380033 -5.847095 nan nan nan -12.072890 -9.561327 -26.386294 -0.446994 -7.746841 51.707659 4.455247 1.415503 -22.905018 nan nan nan -6.790823 1.395713 10.664464 6.328862 -4.238082 6.478471 2.862476 -2.195494 -3.243611 3.069752 -18.686291 10.704446 13.862867 -32.144407 5.119755 -5.715263 -25.099420 -3.472860 -68.840389 -54.512121 35.881117 24.253618 -86.165990 -3.422990 10.749464 -32.667523 -33.453400 11.154601 10.763347 2.290242 21.341158 1.011255 -16.299911 -42.167513 32.851170 -39.705110 2.102885 20.543396 -18.700010 
-126.629387 41.860500 89.720894 -87.418077 -1.440758 84.770987 27.159667 9.704369 -2.194440 -1.925119 -0.056765 14.001123 -13.953359 -6.485859 -6.598188 nan nan nan -11.710272 -9.555115 -26.582495 -0.546518 -8.395932 52.448382 4.322904 1.135390 -23.641992 nan nan nan -6.756551 1.630967 10.804833 6.418906 -4.137118 6.830834 2.947174 -2.322755 -3.622610 3.465071 -19.051764 10.304799 13.875639 -32.386866 5.234787 -6.228928 -25.103432 -3.180614 -68.763458 -54.539275 35.782403 31.905102 -86.649721 -10.497494 10.740382 -32.632292 -33.688331 11.568989 10.756748 2.356410 20.950834 0.926406 -16.900999 -41.942101 32.594712 -40.005087 2.325129 20.781994 -19.918365 
-126.599632 42.036133 89.331848 -86.884495 -0.944575 84.808145 27.790494 9.619145 -2.894620 -1.824123 0.307618 14.640815 -13.965516 -6.605366 -6.954753 nan nan nan -11.423000 -9.743016 -26.637262 -0.652281 -9.208896 53.000116 4.059999 0.959699 -24.328655 nan nan nan -6.805121 1.921484 10.692743 6.623322 -4.153168 7.557552 3.102812 -2.368928 -4.253714 3.673163 -19.340674 10.141966 14.007466 -32.523343 4.885539 -6.693181 -25.336742 -2.792874 -68.592097 -54.410339 35.519528 48.955032 -86.954640 -27.340443 10.154721 -32.512929 -34.117643 11.906958 11.049654 2.685048 20.651717 0.525451 -17.586905 -42.189200 32.152535 -40.577812 3.075262 20.847987 -20.590794 
-126.619354 42.170605 88.979958 -86.380853 -0.551914 84.883531 28.273461 9.414016 -3.482489 -1.670576 0.762663 15.107459 -14.059606 -6.731920 -7.220581 nan nan nan -11.274465 -9.987231 -26.454449 -0.846465 -10.113988 53.240548 3.879781 1.063332 -25.225139 nan nan nan -6.934701 2.251839 10.589988 6.835951 -4.192029 7.894576 3.195035 -2.229761 -4.650948 3.723328 -19.482346 10.175659 14.334157 -33.356443 4.617662 -7.093588 -25.864389 -2.490885 -68.654651 -54.151026 35.525472 66.359840 -86.627066 -44.981529 8.964069 -32.509721 -34.076088 12.328729 11.307637 2.647562 20.505978 -0.339687 -18.106008 -42.617908 31.888194 -41.124968 3.982118 20.749643 -19.700849 
-126.663887 42.300423 88.667961 -85.915207 -0.248465 84.885508 28.652105 9.267322 -3.952801 -1.535287 0.958468 15.561613 -14.067181 -6.903897 -7.770235 nan nan nan -11.168044 -10.290737 -25.997959 -0.975748 -10.847006 53.183771 3.643027 1.213644 -26.395579 nan nan nan -7.203221 2.497127 10.219574 6.961914 -4.389373 8.264629 3.296996 -2.104510 -4.721938 3.968971 -19.384198 10.416269 14.515679 -33.927927 4.348770 -7.551457 -26.330907 -2.022362 -68.361435 -54.006111 35.009853 76.415461 -86.163857 -54.971922 7.834375 -32.654743 -33.222311 13.001373 11.554803 3.155709 20.296430 -0.646265 -18.934567 -43.047944 31.636536 -41.306416 4.322185 20.815057 -18.359405 
